<svg viewBox="0 0 240 248" xmlns="http://www.w3.org/2000/svg" class="nx-logo" role="img" aria-label="Nexus Institute of Technology planetary-gear logo"><defs>
<radialGradient id="coin" cx="50%" cy="42%" r="65%">
  <stop offset="0%" stop-color="#FFFFFF"/><stop offset="72%" stop-color="#F2F7F7"/>
  <stop offset="100%" stop-color="#E4ECEC"/>
</radialGradient>
<linearGradient id="metal" x1="0%" y1="0%" x2="86%" y2="100%">
  <stop offset="0%" stop-color="#FDFEFE"/><stop offset="34%" stop-color="#D5DBE1"/>
  <stop offset="55%" stop-color="#98A2AD"/><stop offset="76%" stop-color="#E1E6EA"/>
  <stop offset="100%" stop-color="#C4CBD3"/>
</linearGradient>
<linearGradient id="metal2" x1="100%" y1="0%" x2="14%" y2="100%">
  <stop offset="0%" stop-color="#F4F6F8"/><stop offset="52%" stop-color="#A3ACB7"/>
  <stop offset="100%" stop-color="#E9EDF0"/>
</linearGradient>
<linearGradient id="ntube" x1="0%" y1="0%" x2="0%" y2="100%">
  <stop offset="0%" stop-color="#5FF3EC"/><stop offset="55%" stop-color="#17C6C9"/>
  <stop offset="100%" stop-color="#0A9AA6"/>
</linearGradient>
<filter id="glow" x="-70%" y="-70%" width="240%" height="240%">
  <feGaussianBlur stdDeviation="3.4" result="b"/>
  <feMerge><feMergeNode in="b"/><feMergeNode in="SourceGraphic"/></feMerge>
</filter>
<filter id="soft" x="-90%" y="-90%" width="280%" height="280%">
  <feGaussianBlur stdDeviation="8"/>
</filter>
<filter id="drop" x="-25%" y="-25%" width="150%" height="160%">
  <feDropShadow dx="0" dy="4" stdDeviation="6" flood-color="#3A4650" flood-opacity="0.30"/>
</filter>
</defs><g filter="url(#drop)"><circle cx="120" cy="120" r="106" fill="url(#coin)"/><path d="M222.96 117.30 L231.96 117.07 L231.96 122.93 L222.96 122.70 L222.68 128.08 L231.65 128.79 L231.04 134.62 L222.12 133.44 L221.28 138.77 L230.12 140.41 L228.91 146.15 L220.15 144.04 L218.76 149.25 L227.39 151.81 L225.58 157.39 L217.09 154.38 L215.16 159.42 L223.47 162.86 L221.09 168.22 L212.97 164.34 L210.52 169.15 L218.43 173.44 L215.50 178.52 L207.82 173.82 L204.88 178.34 L212.30 183.44 L208.86 188.18 L201.72 182.70 L198.32 186.89 L205.17 192.74 L201.24 197.10 L194.71 190.90 L190.90 194.71 L197.10 201.24 L192.74 205.17 L186.89 198.32 L182.70 201.72 L188.18 208.86 L183.44 212.30 L178.34 204.88 L173.82 207.82 L178.52 215.50 L173.44 218.43 L169.15 210.52 L164.34 212.97 L168.22 221.09 L162.86 223.47 L159.42 215.16 L154.38 217.09 L157.39 225.58 L151.81 227.39 L149.25 218.76 L144.04 220.15 L146.15 228.91 L140.41 230.12 L138.77 221.28 L133.44 222.12 L134.62 231.04 L128.79 231.65 L128.08 222.68 L122.70 222.96 L122.93 231.96 L117.07 231.96 L117.30 222.96 L111.92 222.68 L111.21 231.65 L105.38 231.04 L106.56 222.12 L101.23 221.28 L99.59 230.12 L93.85 228.91 L95.96 220.15 L90.75 218.76 L88.19 227.39 L82.61 225.58 L85.62 217.09 L80.58 215.16 L77.14 223.47 L71.78 221.09 L75.66 212.97 L70.85 210.52 L66.56 218.43 L61.48 215.50 L66.18 207.82 L61.66 204.88 L56.56 212.30 L51.82 208.86 L57.30 201.72 L53.11 198.32 L47.26 205.17 L42.90 201.24 L49.10 194.71 L45.29 190.90 L38.76 197.10 L34.83 192.74 L41.68 186.89 L38.28 182.70 L31.14 188.18 L27.70 183.44 L35.12 178.34 L32.18 173.82 L24.50 178.52 L21.57 173.44 L29.48 169.15 L27.03 164.34 L18.91 168.22 L16.53 162.86 L24.84 159.42 L22.91 154.38 L14.42 157.39 L12.61 151.81 L21.24 149.25 L19.85 144.04 L11.09 146.15 L9.88 140.41 L18.72 138.77 L17.88 133.44 L8.96 134.62 L8.35 128.79 L17.32 128.08 L17.04 122.70 L8.04 122.93 L8.04 117.07 L17.04 117.30 L17.32 111.92 L8.35 111.21 L8.96 105.38 L17.88 106.56 L18.72 101.23 L9.88 99.59 L11.09 93.85 L19.85 95.96 L21.24 90.75 L12.61 88.19 L14.42 82.61 L22.91 85.62 L24.84 80.58 L16.53 77.14 L18.91 71.78 L27.03 75.66 L29.48 70.85 L21.57 66.56 L24.50 61.48 L32.18 66.18 L35.12 61.66 L27.70 56.56 L31.14 51.82 L38.28 57.30 L41.68 53.11 L34.83 47.26 L38.76 42.90 L45.29 49.10 L49.10 45.29 L42.90 38.76 L47.26 34.83 L53.11 41.68 L57.30 38.28 L51.82 31.14 L56.56 27.70 L61.66 35.12 L66.18 32.18 L61.48 24.50 L66.56 21.57 L70.85 29.48 L75.66 27.03 L71.78 18.91 L77.14 16.53 L80.58 24.84 L85.62 22.91 L82.61 14.42 L88.19 12.61 L90.75 21.24 L95.96 19.85 L93.85 11.09 L99.59 9.88 L101.23 18.72 L106.56 17.88 L105.38 8.96 L111.21 8.35 L111.92 17.32 L117.30 17.04 L117.07 8.04 L122.93 8.04 L122.70 17.04 L128.08 17.32 L128.79 8.35 L134.62 8.96 L133.44 17.88 L138.77 18.72 L140.41 9.88 L146.15 11.09 L144.04 19.85 L149.25 21.24 L151.81 12.61 L157.39 14.42 L154.38 22.91 L159.42 24.84 L162.86 16.53 L168.22 18.91 L164.34 27.03 L169.15 29.48 L173.44 21.57 L178.52 24.50 L173.82 32.18 L178.34 35.12 L183.44 27.70 L188.18 31.14 L182.70 38.28 L186.89 41.68 L192.74 34.83 L197.10 38.76 L190.90 45.29 L194.71 49.10 L201.24 42.90 L205.17 47.26 L198.32 53.11 L201.72 57.30 L208.86 51.82 L212.30 56.56 L204.88 61.66 L207.82 66.18 L215.50 61.48 L218.43 66.56 L210.52 70.85 L212.97 75.66 L221.09 71.78 L223.47 77.14 L215.16 80.58 L217.09 85.62 L225.58 82.61 L227.39 88.19 L218.76 90.75 L220.15 95.96 L228.91 93.85 L230.12 99.59 L221.28 101.23 L222.12 106.56 L231.04 105.38 L231.65 111.21 L222.68 111.92 Z M208.00 120.00 A88 88 0 1 0 32.00 120.00 A88 88 0 1 0 208.00 120.00 Z" fill="url(#metal)" fill-rule="evenodd" stroke="#6E7883" stroke-width="1.2"/><circle cx="120" cy="120" r="88.6" fill="none" stroke="#7E8894" stroke-width="1" opacity="0.6"/><circle cx="120" cy="120" r="87" fill="none" stroke="#2BD9DB" stroke-width="4" filter="url(#soft)" opacity="0.95"/><circle cx="120" cy="120" r="87" fill="none" stroke="#7CF2F0" stroke-width="1.4" opacity="0.95"/><path d="M206 120 A86 86 0 1 1 34 120 A86 86 0 1 1 206 120 Z M204.86 115.11 L193.92 116.51 L193.92 123.49 L204.86 124.89 L204.02 132.86 L193.03 131.96 L191.58 138.78 L201.99 142.43 L199.51 150.05 L188.95 146.88 L186.11 153.25 L195.53 158.99 L191.53 165.92 L181.85 160.63 L177.75 166.27 L185.78 173.84 L180.42 179.79 L172.05 172.60 L166.87 177.26 L173.15 186.34 L166.67 191.04 L159.98 182.27 L153.94 185.76 L158.19 195.94 L150.88 199.19 L146.16 189.22 L139.53 191.38 L141.57 202.22 L133.74 203.88 L131.19 193.15 L124.26 193.88 L124.00 204.91 L116.00 204.91 L115.74 193.88 L108.81 193.15 L106.26 203.88 L98.43 202.22 L100.47 191.38 L93.84 189.22 L89.12 199.19 L81.81 195.94 L86.06 185.76 L80.02 182.27 L73.33 191.04 L66.85 186.34 L73.13 177.26 L67.95 172.60 L59.58 179.79 L54.22 173.84 L62.25 166.27 L58.15 160.63 L48.47 165.92 L44.47 158.99 L53.89 153.25 L51.05 146.88 L40.49 150.05 L38.01 142.43 L48.42 138.78 L46.97 131.96 L35.98 132.86 L35.14 124.89 L46.08 123.49 L46.08 116.51 L35.14 115.11 L35.98 107.14 L46.97 108.04 L48.42 101.22 L38.01 97.57 L40.49 89.95 L51.05 93.12 L53.89 86.75 L44.47 81.01 L48.47 74.08 L58.15 79.37 L62.25 73.73 L54.22 66.16 L59.58 60.21 L67.95 67.40 L73.13 62.74 L66.85 53.66 L73.33 48.96 L80.02 57.73 L86.06 54.24 L81.81 44.06 L89.12 40.81 L93.84 50.78 L100.47 48.62 L98.43 37.78 L106.26 36.12 L108.81 46.85 L115.74 46.12 L116.00 35.09 L124.00 35.09 L124.26 46.12 L131.19 46.85 L133.74 36.12 L141.57 37.78 L139.53 48.62 L146.16 50.78 L150.88 40.81 L158.19 44.06 L153.94 54.24 L159.98 57.73 L166.67 48.96 L173.15 53.66 L166.87 62.74 L172.05 67.40 L180.42 60.21 L185.78 66.16 L177.75 73.73 L181.85 79.37 L191.53 74.08 L195.53 81.01 L186.11 86.75 L188.95 93.12 L199.51 89.95 L201.99 97.57 L191.58 101.22 L193.03 108.04 L204.02 107.14 Z" fill="url(#metal2)" fill-rule="evenodd" stroke="#6E7883" stroke-width="1.1"/><circle cx="120" cy="120" r="61" fill="none" stroke="#2BD9DB" stroke-width="2.4" opacity="0.7" filter="url(#glow)"/><circle cx="120" cy="120" r="37" fill="none" stroke="#2BD9DB" stroke-width="1.8" opacity="0.55" filter="url(#glow)"/><circle cx="120.0" cy="66.0" r="24" fill="#2BD9DB" opacity="0.8" filter="url(#soft)"/><path d="M134.84 63.85 L143.83 63.18 L143.83 68.82 L134.84 68.15 L133.93 71.56 L142.05 75.47 L139.23 80.36 L131.78 75.29 L129.29 77.78 L134.36 85.23 L129.47 88.05 L125.56 79.93 L122.15 80.84 L122.82 89.83 L117.18 89.83 L117.85 80.84 L114.44 79.93 L110.53 88.05 L105.64 85.23 L110.71 77.78 L108.22 75.29 L100.77 80.36 L97.95 75.47 L106.07 71.56 L105.16 68.15 L96.17 68.82 L96.17 63.18 L105.16 63.85 L106.07 60.44 L97.95 56.53 L100.77 51.64 L108.22 56.71 L110.71 54.22 L105.64 46.77 L110.53 43.95 L114.44 52.07 L117.85 51.16 L117.18 42.17 L122.82 42.17 L122.15 51.16 L125.56 52.07 L129.47 43.95 L134.36 46.77 L129.29 54.22 L131.78 56.71 L139.23 51.64 L142.05 56.53 L133.93 60.44 Z M131.00 66.00 A11 11 0 1 0 109.00 66.00 A11 11 0 1 0 131.00 66.00 Z" fill="url(#metal)" fill-rule="evenodd" stroke="#6E7883" stroke-width="1.2"/><circle cx="120.0" cy="66.0" r="11.8" fill="none" stroke="#7E8894" stroke-width="1.1" opacity="0.65"/><path d="M110.2 56.2 A14 14 0 0 1 129.8 56.2" fill="none" stroke="#FFFFFF" stroke-width="1.6" opacity="0.85"/><circle cx="120.0" cy="66.0" r="11" fill="#FFFFFF" stroke="#B7BFC7" stroke-width="1.4"/><circle cx="120.0" cy="66.0" r="5.2" fill="#EDF1F4" stroke="#8E97A2" stroke-width="2.4"/><circle cx="120.0" cy="66.0" r="5.2" fill="none" stroke="#0FB4B8" stroke-width="0.9" opacity="0.6"/><circle cx="166.8" cy="147.0" r="24" fill="#2BD9DB" opacity="0.8" filter="url(#soft)"/><path d="M181.61 144.85 L190.60 144.18 L190.60 149.82 L181.61 149.15 L180.70 152.56 L188.82 156.47 L186.00 161.36 L178.55 156.29 L176.05 158.78 L181.13 166.23 L176.24 169.05 L172.32 160.93 L168.92 161.84 L169.59 170.83 L163.94 170.83 L164.61 161.84 L161.21 160.93 L157.29 169.05 L152.41 166.23 L157.48 158.78 L154.99 156.29 L147.54 161.36 L144.71 156.47 L152.83 152.56 L151.92 149.15 L142.93 149.82 L142.93 144.18 L151.92 144.85 L152.83 141.44 L144.71 137.53 L147.54 132.64 L154.99 137.71 L157.48 135.22 L152.41 127.77 L157.29 124.95 L161.21 133.07 L164.61 132.16 L163.94 123.17 L169.59 123.17 L168.92 132.16 L172.32 133.07 L176.24 124.95 L181.13 127.77 L176.05 135.22 L178.55 137.71 L186.00 132.64 L188.82 137.53 L180.70 141.44 Z M177.77 147.00 A11 11 0 1 0 155.77 147.00 A11 11 0 1 0 177.77 147.00 Z" fill="url(#metal)" fill-rule="evenodd" stroke="#6E7883" stroke-width="1.2"/><circle cx="166.8" cy="147.0" r="11.8" fill="none" stroke="#7E8894" stroke-width="1.1" opacity="0.65"/><path d="M157.0 137.2 A14 14 0 0 1 176.6 137.2" fill="none" stroke="#FFFFFF" stroke-width="1.6" opacity="0.85"/><circle cx="166.8" cy="147.0" r="11" fill="#FFFFFF" stroke="#B7BFC7" stroke-width="1.4"/><circle cx="166.8" cy="147.0" r="5.2" fill="#EDF1F4" stroke="#8E97A2" stroke-width="2.4"/><circle cx="166.8" cy="147.0" r="5.2" fill="none" stroke="#0FB4B8" stroke-width="0.9" opacity="0.6"/><circle cx="73.2" cy="147.0" r="24" fill="#2BD9DB" opacity="0.8" filter="url(#soft)"/><path d="M88.08 144.85 L97.07 144.18 L97.07 149.82 L88.08 149.15 L87.17 152.56 L95.29 156.47 L92.46 161.36 L85.01 156.29 L82.52 158.78 L87.59 166.23 L82.71 169.05 L78.79 160.93 L75.39 161.84 L76.06 170.83 L70.41 170.83 L71.08 161.84 L67.68 160.93 L63.76 169.05 L58.87 166.23 L63.95 158.78 L61.45 156.29 L54.00 161.36 L51.18 156.47 L59.30 152.56 L58.39 149.15 L49.40 149.82 L49.40 144.18 L58.39 144.85 L59.30 141.44 L51.18 137.53 L54.00 132.64 L61.45 137.71 L63.95 135.22 L58.87 127.77 L63.76 124.95 L67.68 133.07 L71.08 132.16 L70.41 123.17 L76.06 123.17 L75.39 132.16 L78.79 133.07 L82.71 124.95 L87.59 127.77 L82.52 135.22 L85.01 137.71 L92.46 132.64 L95.29 137.53 L87.17 141.44 Z M84.23 147.00 A11 11 0 1 0 62.23 147.00 A11 11 0 1 0 84.23 147.00 Z" fill="url(#metal)" fill-rule="evenodd" stroke="#6E7883" stroke-width="1.2"/><circle cx="73.2" cy="147.0" r="11.8" fill="none" stroke="#7E8894" stroke-width="1.1" opacity="0.65"/><path d="M63.4 137.2 A14 14 0 0 1 83.0 137.2" fill="none" stroke="#FFFFFF" stroke-width="1.6" opacity="0.85"/><circle cx="73.2" cy="147.0" r="11" fill="#FFFFFF" stroke="#B7BFC7" stroke-width="1.4"/><circle cx="73.2" cy="147.0" r="5.2" fill="#EDF1F4" stroke="#8E97A2" stroke-width="2.4"/><circle cx="73.2" cy="147.0" r="5.2" fill="none" stroke="#0FB4B8" stroke-width="0.9" opacity="0.6"/><circle cx="120" cy="120" r="40" fill="#2BD9DB" opacity="0.85" filter="url(#soft)"/><path d="M147.84 116.98 L158.85 116.56 L158.85 123.44 L147.84 123.02 L146.87 127.86 L157.21 131.69 L154.57 138.05 L144.56 133.44 L141.82 137.55 L149.90 145.04 L145.04 149.90 L137.55 141.82 L133.44 144.56 L138.05 154.57 L131.69 157.21 L127.86 146.87 L123.02 147.84 L123.44 158.85 L116.56 158.85 L116.98 147.84 L112.14 146.87 L108.31 157.21 L101.95 154.57 L106.56 144.56 L102.45 141.82 L94.96 149.90 L90.10 145.04 L98.18 137.55 L95.44 133.44 L85.43 138.05 L82.79 131.69 L93.13 127.86 L92.16 123.02 L81.15 123.44 L81.15 116.56 L92.16 116.98 L93.13 112.14 L82.79 108.31 L85.43 101.95 L95.44 106.56 L98.18 102.45 L90.10 94.96 L94.96 90.10 L102.45 98.18 L106.56 95.44 L101.95 85.43 L108.31 82.79 L112.14 93.13 L116.98 92.16 L116.56 81.15 L123.44 81.15 L123.02 92.16 L127.86 93.13 L131.69 82.79 L138.05 85.43 L133.44 95.44 L137.55 98.18 L145.04 90.10 L149.90 94.96 L141.82 102.45 L144.56 106.56 L154.57 101.95 L157.21 108.31 L146.87 112.14 Z M145.00 120.00 A25 25 0 1 0 95.00 120.00 A25 25 0 1 0 145.00 120.00 Z" fill="url(#metal2)" fill-rule="evenodd" stroke="#6E7883" stroke-width="1.2"/><circle cx="120.0" cy="120.0" r="25.8" fill="none" stroke="#7E8894" stroke-width="1.1" opacity="0.65"/><path d="M99.7 99.7 A29 29 0 0 1 140.3 99.7" fill="none" stroke="#FFFFFF" stroke-width="1.6" opacity="0.85"/><circle cx="120" cy="120" r="25" fill="#FFFFFF"/><circle cx="120" cy="120" r="23" fill="none" stroke="url(#ntube)" stroke-width="4.6" filter="url(#glow)"/><g stroke="url(#ntube)" stroke-width="10" stroke-linecap="butt" fill="none"><line x1="108.5" y1="136.5" x2="108.5" y2="103.5"/><line x1="108.5" y1="103.5" x2="131.5" y2="136.5"/><line x1="131.5" y1="136.5" x2="131.5" y2="103.5"/></g><g stroke="#B9FBF4" stroke-width="1.6" opacity="0.9" fill="none"><line x1="104.4" y1="134" x2="104.4" y2="105"/><line x1="127.4" y1="134" x2="127.4" y2="105"/></g></g></svg>